<svg xmlns="http://www.w3.org/2000/svg" width="230" height="58" fill="none"><path fill="#fff" d="M0 10.552C0 4.7305 4.7193.0112 10.5408.0112H230V47.234c0 5.8215-4.719 10.5407-10.541 10.5407H0V10.552Z"/><path fill="#65754B" d="M15.2217 9.1155h18.4872l-.7026 3.3374h-9.0021l-1.7126 8.036h7.5091l-.7026 3.3813H21.589L18.7786 37h-9.485l5.9281-27.8845ZM53.6047 37H43.3292l-.6148-6.9821h-8.1238L31.4728 37h-4.2595L40.1674 9.1155h10.4073L53.6047 37Zm-17.565-10.1877h6.3673l-1.01-11.9442-5.3573 11.9442Zm47.0111-11.066c0 1.7273-.4831 3.3227-1.4491 4.7865-.9661 1.4638-2.5616 2.5762-4.7865 3.3374L81.9091 37h-9.7925l-3.8643-12.1638h-.4831L65.1784 37h-9.4851l5.9282-27.8845h11.549c1.3466 0 2.6201.0879 3.8203.2635 1.2003.1464 2.2396.4684 3.1178.9661.9076.4684 1.6248 1.1417 2.1518 2.02.5269.8489.7904 1.976.7904 3.3812ZM70.404 22.0258c.7611 0 1.4052-.2488 1.9321-.7465.5562-.5269.9954-1.1563 1.3174-1.8882.3513-.7319.6001-1.5077.7465-2.3274.1464-.849.2196-1.5808.2196-2.1956 0-.7612-.1318-1.4052-.3952-1.9322-.2635-.5562-.8344-.8343-1.7126-.8343h-1.9761l-2.1956 9.9242h2.0639ZM115.713 37h-9.748l4.04-18.9702L99.5976 37h-5.9721l-1.9761-19.6289L87.4338 37h-3.9521l5.9282-27.8845h11.1981l1.361 15.7207L110.4 9.1155h11.286L115.713 37Zm29.147 0h-10.275l-.615-6.9821h-8.124L122.728 37h-4.259l12.954-27.8845h10.407L144.86 37Zm-17.565-10.1877h6.368l-1.01-11.9442-5.358 11.9442Zm22.054-17.6968h10.012l1.493 18.8824 9.134-18.8824h4.347L161.337 37h-10.363l-1.625-27.8845Zm27.843 0h18.487l-.702 3.3374h-8.959l-1.844 8.4751h7.509l-.702 3.2935h-7.509l-2.02 9.3972h8.958L189.751 37h-18.487l5.928-27.8845Zm42.899 3.3374h-7.069L207.796 37h-9.485l5.225-24.5471h-6.982l.791-3.3374h23.493l-.747 3.3374ZM41.5176 49.1689v-6.7461h4.045v.7247h-3.2281v2.2795h2.925v.7246h-2.925v3.0173h-.8169Zm4.8784 0h-.8565l2.4771-6.7461h.8433l2.4771 6.7461h-.8565l-2.0159-5.6788h-.0527l-2.0159 5.6788Zm.3162-2.6352h3.4521v.7247h-3.4521v-.7247Zm5.6756 2.6352v-6.7461h2.2794c.527 0 .9596.0901 1.2978.2701.3382.1779.5886.4228.7511.7346.1625.3118.2437.6665.2437 1.064 0 .3974-.0812.7499-.2437 1.0573-.1625.3075-.4118.549-.7478.7247-.336.1735-.7653.2602-1.2879.2602h-1.8447v-.7378h1.8183c.3602 0 .65-.0527.8696-.1581.2218-.1054.3821-.2548.481-.448.101-.1954.1515-.4282.1515-.6983s-.0505-.5062-.1515-.7082c-.1011-.2021-.2625-.358-.4843-.4678-.2218-.112-.5149-.168-.8795-.168h-1.4361v6.0214h-.8169Zm3.1754-3.0304 1.6601 3.0304h-.9486l-1.6339-3.0304h.9224Zm2.7579-3.7157h.975l2.2926 5.5998h.0791l2.2926-5.5998h.975v6.7461h-.7642v-5.1254h-.0659l-2.1081 5.1254h-.7379l-2.1081-5.1254h-.0659v5.1254h-.7642v-6.7461Zm8.5289 6.7461h-.8564l2.4771-6.7461h.8433l2.477 6.7461h-.8564l-2.0159-5.6788h-.0527l-2.016 5.6788Zm.3163-2.6352h3.4521v.7247h-3.4521v-.7247Zm10.787-2.0027h-.8169c-.0483-.235-.1329-.4414-.2537-.6193a1.689 1.689 0 0 0-.4348-.448 1.8476 1.8476 0 0 0-.5632-.2767 2.2534 2.2534 0 0 0-.6457-.0922c-.4084 0-.7785.1032-1.11.3097-.3294.2064-.5919.5105-.7873.9124-.1933.4019-.2899.8949-.2899 1.479 0 .5841.0966 1.0771.2899 1.479.1954.4019.4579.706.7873.9124.3315.2065.7016.3097 1.11.3097a2.25 2.25 0 0 0 .6457-.0923 1.8867 1.8867 0 0 0 .5632-.2734 1.7337 1.7337 0 0 0 .4348-.4512c.1208-.1801.2054-.3865.2537-.6193h.8169c-.0615.3448-.1735.6533-.336.9256-.1625.2723-.3645.504-.6061.695-.2416.1889-.5128.3327-.8136.4315-.2987.0989-.6182.1483-.9586.1483-.5753 0-1.087-.1406-1.535-.4217-.448-.281-.8004-.6807-1.0573-1.199-.257-.5182-.3854-1.1331-.3854-1.8446s.1284-1.3264.3854-1.8446c.2569-.5183.6093-.918 1.0573-1.1991.448-.281.9597-.4216 1.535-.4216.3404 0 .6599.0494.9586.1482.3008.0989.572.2438.8136.4348.2416.1889.4436.4195.6061.6918.1625.2701.2745.5786.336.9256Zm2.137-2.1082v6.7461h-.8169v-6.7461h.8169Zm1.9146 6.7461h-.8564l2.477-6.7461h.8433l2.4771 6.7461h-.8564l-2.016-5.6788h-.0527l-2.0159 5.6788Zm.3162-2.6352h3.4521v.7247h-3.4521v-.7247Zm8.5611-4.1109 2.0028 5.6789h.079l2.0028-5.6789h.8564l-2.4771 6.7461h-.8432l-2.4771-6.7461h.8564Zm5.9918 6.7461v-6.7461h4.071v.7247h-3.2541v2.2795h3.0441v.7246h-3.0441v2.2927h3.3071v.7246h-4.124Zm5.175-6.0214v-.7247h5.059v.7247h-2.121v6.0214h-.817v-6.0214h-2.121Zm6.32 6.0214v-6.7461h4.072v.7247h-3.255v2.2795h3.044v.7246h-3.044v2.2927h3.307v.7246h-4.124Zm5.544 0v-6.7461h2.279c.528 0 .96.0901 1.298.2701.338.1779.589.4228.751.7346.163.3118.244.6665.244 1.064 0 .3974-.081.7499-.244 1.0573-.162.3075-.411.549-.747.7247-.336.1735-.766.2602-1.288.2602h-1.845v-.7378h1.818c.36 0 .65-.0527.87-.1581.222-.1054.382-.2548.481-.448.101-.1954.151-.4282.151-.6983s-.05-.5062-.151-.7082c-.101-.2021-.263-.358-.484-.4678-.222-.112-.515-.168-.88-.168h-1.436v6.0214h-.817Zm3.175-3.0304 1.661 3.0304h-.949l-1.634-3.0304h.922Zm3.575-3.7157v6.7461h-.817v-6.7461h.817Zm6.988 0v6.7461h-.791l-3.676-5.2967h-.066v5.2967h-.817v-6.7461h.791l3.689 5.31h.066v-5.31h.804Zm1.911 6.7461h-.856l2.477-6.7461h.843l2.477 6.7461h-.856l-2.016-5.6788h-.053l-2.016 5.6788Zm.316-2.6352h3.452v.7247h-3.452v-.7247Zm5.676 2.6352v-6.7461h2.279c.527 0 .96.0901 1.298.2701.338.1779.589.4228.751.7346.163.3118.244.6665.244 1.064 0 .3974-.081.7499-.244 1.0573-.162.3075-.412.549-.748.7247-.336.1735-.765.2602-1.288.2602h-1.844v-.7378h1.818c.36 0 .65-.0527.87-.1581.221-.1054.382-.2548.481-.448.101-.1954.151-.4282.151-.6983s-.05-.5062-.151-.7082c-.101-.2021-.263-.358-.485-.4678-.221-.112-.515-.168-.879-.168h-1.436v6.0214h-.817Zm3.175-3.0304 1.66 3.0304h-.948l-1.634-3.0304h.922Zm3.575-3.7157v6.7461h-.817v-6.7461h.817Zm1.915 6.7461h-.857l2.477-6.7461h.844l2.477 6.7461h-.857l-2.016-5.6788h-.052l-2.016 5.6788Zm.316-2.6352h3.452v.7247h-3.452v-.7247Zm13.976-.7378c0 .7115-.128 1.3264-.385 1.8446-.257.5183-.61.918-1.058 1.199-.447.2811-.959.4217-1.535.4217-.575 0-1.087-.1406-1.535-.4217-.447-.281-.8-.6807-1.057-1.199-.257-.5182-.385-1.1331-.385-1.8446s.128-1.3264.385-1.8446c.257-.5183.61-.918 1.057-1.1991.448-.281.96-.4216 1.535-.4216.576 0 1.088.1406 1.535.4216.448.2811.801.6808 1.058 1.1991.257.5182.385 1.1331.385 1.8446Zm-.79 0c0-.5841-.098-1.0771-.293-1.479-.194-.4019-.456-.706-.788-.9124-.329-.2065-.698-.3097-1.107-.3097-.408 0-.778.1032-1.11.3097-.329.2064-.591.5105-.787.9124-.193.4019-.29.8949-.29 1.479 0 .5841.097 1.0771.29 1.479.196.4019.458.706.787.9124.332.2065.702.3097 1.11.3097.409 0 .778-.1032 1.107-.3097.332-.2064.594-.5105.788-.9124.195-.4019.293-.8949.293-1.479Zm7.513-3.3731v6.7461h-.79l-3.676-5.2967h-.066v5.2967h-.817v-6.7461h.79l3.69 5.31h.066v-5.31h.803Zm1.635 6.7461v-6.7461h.817v6.0215h3.136v.7246h-3.953Zm6.035-6.7461v6.7461h-.817v-6.7461h.817Zm6.987 0v6.7461h-.791l-3.676-5.2967h-.066v5.2967h-.817v-6.7461h.791l3.689 5.31h.066v-5.31h.804Zm1.635 6.7461v-6.7461h4.071v.7247h-3.254v2.2795h3.043v.7246h-3.043v2.2927h3.307v.7246h-4.124Z"/></svg>